<?xml version="1.0" encoding="UTF-8" standalone="no"?>
<!-- Created with Inkscape (http://www.inkscape.org/) -->

<svg
   xmlns:dc="http://purl.org/dc/elements/1.1/"
   xmlns:cc="http://creativecommons.org/ns#"
   xmlns:rdf="http://www.w3.org/1999/02/22-rdf-syntax-ns#"
   xmlns:svg="http://www.w3.org/2000/svg"
   xmlns="http://www.w3.org/2000/svg"
   xmlns:sodipodi="http://sodipodi.sourceforge.net/DTD/sodipodi-0.dtd"
   xmlns:inkscape="http://www.inkscape.org/namespaces/inkscape"
   width="63.122021mm"
   height="63.122021mm"
   viewBox="0 0 63.122021 63.122021"
   version="1.1"
   id="svg8"
   inkscape:version="0.92.3 (unknown)"
   sodipodi:docname="pie.svg">
  <defs
     id="defs2" />
  <sodipodi:namedview
     id="base"
     pagecolor="#ffffff"
     bordercolor="#666666"
     borderopacity="1.0"
     inkscape:pageopacity="0.0"
     inkscape:pageshadow="2"
     inkscape:zoom="0.98994949"
     inkscape:cx="338.43101"
     inkscape:cy="20.341228"
     inkscape:document-units="mm"
     inkscape:current-layer="layer1"
     showgrid="false"
     inkscape:window-width="1366"
     inkscape:window-height="716"
     inkscape:window-x="0"
     inkscape:window-y="0"
     inkscape:window-maximized="1" />
  <metadata
     id="metadata5">
    <rdf:RDF>
      <cc:Work
         rdf:about="">
        <dc:format>image/svg+xml</dc:format>
        <dc:type
           rdf:resource="http://purl.org/dc/dcmitype/StillImage" />
        <dc:title></dc:title>
      </cc:Work>
    </rdf:RDF>
  </metadata>
  <g
     inkscape:label="Layer 1"
     inkscape:groupmode="layer"
     id="layer1"
     transform="translate(249.27527,-84.010415)">
    <circle
       style="opacity:1;fill:#ffffff;fill-opacity:1;fill-rule:nonzero;stroke:#000000;stroke-width:2.64583325;stroke-linecap:butt;stroke-linejoin:miter;stroke-miterlimit:4;stroke-dasharray:none;stroke-opacity:1;paint-order:fill markers stroke"
       id="path815"
       cx="-217.71426"
       cy="115.57143"
       r="30.238094"
       inkscape:export-xdpi="103.01318"
       inkscape:export-ydpi="103.01318" />
    <text
       xml:space="preserve"
       style="font-style:normal;font-variant:normal;font-weight:normal;font-stretch:normal;font-size:10.58333302px;line-height:1.25;font-family:'Noto Sans';-inkscape-font-specification:'Noto Sans';letter-spacing:0px;word-spacing:0px;fill:#000000;fill-opacity:1;stroke:none;stroke-width:0.26458332"
       x="-229.48067"
       y="181.26846"
       id="text819"><tspan
         sodipodi:role="line"
         id="tspan817"
         x="-229.48067"
         y="181.26846"
         style="font-style:normal;font-variant:normal;font-weight:normal;font-stretch:normal;font-family:'Century Schoolbook L';-inkscape-font-specification:'Century Schoolbook L';stroke-width:0.26458332">PIE</tspan></text>
    <g
       id="g838"
       transform="translate(-1.0436989,2.4925198)">
      <path
         d="m -226.80114,118.15891 h -2.39183 c -1.905,0 -2.89983,-0.14817 -3.7465,-0.55034 -1.50283,-0.71966 -2.3495,-2.07433 -2.3495,-3.7465 0,-1.60866 0.74083,-2.83633 2.13783,-3.53483 0.8255,-0.42333 2.13784,-0.65617 3.59834,-0.65617 h 7.40833 v 0.99484 h -0.381 c -1.7145,0 -1.905,0.10583 -1.905,0.99483 v 0.61383 10.07534 0.61383 c 0,0.889 0.1905,0.99483 1.905,0.99483 h 0.381 v 0.99484 h -7.112 v -0.99484 h 0.55033 c 1.7145,0 1.905,-0.10583 1.905,-0.99483 v -0.61383 z m 0,-0.99484 v -5.41866 c 0,-0.97367 -0.127,-1.0795 -1.29116,-1.0795 h -1.35467 c -2.20133,0 -3.2385,1.03716 -3.2385,3.28083 0,2.18017 1.0795,3.21733 3.32317,3.21733 z"
         style="font-style:normal;font-variant:normal;font-weight:normal;font-stretch:normal;font-size:medium;line-height:1.25;font-family:'Century Schoolbook L';-inkscape-font-specification:'Century Schoolbook L';letter-spacing:0px;word-spacing:0px;fill:#000000;fill-opacity:1;stroke:none;stroke-width:0.52916664"
         id="path825"
         inkscape:connector-curvature="0" />
      <path
         d="m -215.61223,112.27457 v -0.61383 c 0,-0.889 0.1905,-0.99483 1.88383,-0.99483 h 0.42333 v -0.99484 h -7.00616 v 0.99484 h 0.42333 c 1.7145,0 1.905,0.10583 1.905,0.99483 v 0.61383 10.07534 0.61383 c 0,0.889 -0.1905,0.99483 -1.905,0.99483 h -0.42333 v 0.99484 h 7.00616 v -0.99484 h -0.42333 c -1.69333,0 -1.88383,-0.10583 -1.88383,-0.99483 v -0.61383 z"
         style="font-style:normal;font-variant:normal;font-weight:normal;font-stretch:normal;font-size:medium;line-height:1.25;font-family:'Century Schoolbook L';-inkscape-font-specification:'Century Schoolbook L';letter-spacing:0px;word-spacing:0px;fill:#000000;fill-opacity:1;stroke:none;stroke-width:0.52916664"
         id="path827"
         inkscape:connector-curvature="0" />
      <path
         d="m -198.75066,109.67107 h -12.72117 v 0.99484 h 0.381 c 1.7145,0 1.905,0.10583 1.905,0.99483 v 0.61383 10.07534 0.61383 c 0,0.889 -0.1905,0.99483 -1.905,0.99483 h -0.381 v 0.99484 h 12.99634 l 0.42333,-5.6515 h -0.93133 c -0.27517,1.48166 -0.762,2.794 -1.27,3.40783 -0.65617,0.84667 -1.86267,1.24883 -3.64067,1.24883 h -1.397 c -0.635,0 -1.16417,-0.127 -1.35467,-0.3175 -0.14816,-0.127 -0.16933,-0.254 -0.16933,-0.6985 v -5.3975 h 0.42333 c 1.29117,0 1.82034,0.127 2.24367,0.5715 0.55033,0.55034 0.762,1.22767 0.80433,2.4765 h 0.99484 v -6.94266 h -0.99484 c -0.10583,2.07433 -0.9525,2.89983 -2.96333,2.89983 h -0.508 v -4.826 c 0,-0.91017 0.1905,-1.05833 1.3335,-1.05833 h 1.10067 c 1.86266,0 2.77283,0.1905 3.4925,0.78316 0.6985,0.55034 1.2065,1.73567 1.524,3.64067 h 0.91016 z"
         style="font-style:normal;font-variant:normal;font-weight:normal;font-stretch:normal;font-size:medium;line-height:1.25;font-family:'Century Schoolbook L';-inkscape-font-specification:'Century Schoolbook L';letter-spacing:0px;word-spacing:0px;fill:#000000;fill-opacity:1;stroke:none;stroke-width:0.52916664"
         id="path829"
         inkscape:connector-curvature="0" />
    </g>
  </g>
</svg>
